<svg xmlns="http://www.w3.org/2000/svg" viewBox="0 0 143.5 115.27"><defs><style>.cls-1{isolation:isolate;}.cls-2{fill:#3bbbcc;}.cls-10,.cls-2,.cls-3,.cls-4,.cls-5,.cls-6,.cls-8,.cls-9{fill-rule:evenodd;}.cls-2,.cls-3,.cls-4,.cls-5{mix-blend-mode:hard-light;}.cls-3{fill:#1475bc;}.cls-4{fill:#ce810f;}.cls-5{fill:#b7cd00;}.cls-6{fill:none;stroke:#010101;}.cls-6,.cls-7{stroke-miterlimit:10;}.cls-7{fill:#fff;stroke:#103553;opacity:0.62;}.cls-8{fill:#316bb3;}.cls-9{fill:#49b7a4;}.cls-10{fill:#e5c20f;}</style></defs><title>EstudeApp</title><g class="cls-1"><g id="Capa_1" data-name="Capa 1"><path class="cls-2" d="M70.62,45.15c-18.36,0-35.34,8-49.21,21.51V86.89a4.82,4.82,0,0,0,4.82,4.83h6.44v9.65a4.43,4.43,0,0,0,.1,1A4.19,4.19,0,0,0,33,103c0,.09,0,.19.09.28a5.21,5.21,0,0,0,.28.52c.06.1.1.2.16.3a5.47,5.47,0,0,0,.54.65l0,.06a4.84,4.84,0,0,0,3.35,1.41h.06a4.84,4.84,0,0,0,3.42-1.41L54,91.72h65.55a4.83,4.83,0,0,0,4.83-4.83V71.39C109.73,55,91,45.15,70.62,45.15Z"/><path class="cls-3" d="M119.52,12.77H88.8a68.38,68.38,0,0,0-2.11,78.81h32.83a4.83,4.83,0,0,0,4.83-4.83V17.59A4.82,4.82,0,0,0,119.52,12.77Z"/><path class="cls-4" d="M26.23,91.72H57a68.14,68.14,0,0,0,13.58-40.9A68.06,68.06,0,0,0,59.07,12.91H26.23a4.82,4.82,0,0,0-4.82,4.82V86.89A4.82,4.82,0,0,0,26.23,91.72Z"/><path class="cls-5" d="M75.14,59.55a83,83,0,0,0,49.21-16.12V17.73a4.82,4.82,0,0,0-4.83-4.82H26.23a4.82,4.82,0,0,0-4.82,4.82V39.88A83.19,83.19,0,0,0,75.14,59.55Z"/><path class="cls-6" d="M119.52,91.72H54L40.91,104.78a4.84,4.84,0,0,1-3.42,1.41h-.06a4.84,4.84,0,0,1-3.35-1.41l0-.06a5.47,5.47,0,0,1-.54-.65c-.06-.1-.1-.2-.16-.3a5.21,5.21,0,0,1-.28-.52c0-.09-.06-.19-.09-.28a4.19,4.19,0,0,1-.19-.63,4.43,4.43,0,0,1-.1-1h0V91.72H26.23a4.82,4.82,0,0,1-4.82-4.83V17.73a4.82,4.82,0,0,1,4.82-4.82h93.29a4.82,4.82,0,0,1,4.83,4.82V86.89A4.83,4.83,0,0,1,119.52,91.72Z"/><circle class="cls-7" cx="41.34" cy="52.17" r="14.4"/><circle class="cls-7" cx="73.81" cy="52.17" r="14.4"/><circle class="cls-7" cx="106.71" cy="52.17" r="14.4"/><path id="CIRCLE_LEFT" data-name="CIRCLE / LEFT" class="cls-8" d="M41.09,60.05A7.88,7.88,0,1,1,49,52.17,7.88,7.88,0,0,1,41.09,60.05Zm0-14.28a6.41,6.41,0,1,0,6.4,6.4A6.41,6.41,0,0,0,41.09,45.77Zm3.2,7.14H39.81l1,.93h0a.75.75,0,0,1,.25.55.74.74,0,0,1-.74.74.81.81,0,0,1-.5-.19h0l-2.46-2.22h0a.75.75,0,0,1,0-1.1h0l2.46-2.21h0a.76.76,0,0,1,.5-.19.74.74,0,0,1,.74.74.73.73,0,0,1-.25.54h0l-1,.93h4.48a.74.74,0,1,1,0,1.48Z"/><path id="CIRCLE_LEFT-2" data-name="CIRCLE / LEFT" class="cls-9" d="M65.92,52.17a7.89,7.89,0,1,1,7.89,7.88A7.88,7.88,0,0,1,65.92,52.17Zm14.29,0a6.41,6.41,0,1,0-6.4,6.41A6.41,6.41,0,0,0,80.21,52.17Zm-7.14,3.2V50.9l-.93,1h0a.74.74,0,0,1-1.29-.5.71.71,0,0,1,.19-.49h0l2.22-2.46h0a.72.72,0,0,1,1.09,0h0l2.21,2.46h0a.71.71,0,0,1,.19.49.74.74,0,0,1-.74.74.7.7,0,0,1-.54-.24h0l-.92-1v4.47a.74.74,0,1,1-1.48,0Z"/><path id="CIRCLE_LEFT-3" data-name="CIRCLE / LEFT" class="cls-10" d="M107.38,43.62a8.55,8.55,0,1,1-8.55,8.55A8.55,8.55,0,0,1,107.38,43.62Zm0,15.5a6.95,6.95,0,1,0-6.95-6.95A6.95,6.95,0,0,0,107.38,59.12Zm-3.48-7.75h4.86l-1.12-1h0a.78.78,0,0,1-.27-.59.8.8,0,0,1,.8-.8.81.81,0,0,1,.53.2h0l2.67,2.41h0a.81.81,0,0,1,0,1.19h0l-2.67,2.4h0a.77.77,0,0,1-.53.21.8.8,0,0,1-.8-.8.79.79,0,0,1,.27-.6h0l1.12-1H103.9a.8.8,0,1,1,0-1.6Z"/></g></g></svg>