<svg xmlns="http://www.w3.org/2000/svg" viewBox="0 0 143.5 115.27"><defs><style>.cls-1{isolation:isolate;}.cls-2{fill:#3bbbcc;}.cls-10,.cls-2,.cls-3,.cls-4,.cls-5,.cls-6,.cls-8,.cls-9{fill-rule:evenodd;}.cls-2,.cls-3,.cls-4,.cls-5{mix-blend-mode:hard-light;}.cls-3{fill:#1475bc;}.cls-4{fill:#ce810f;}.cls-5{fill:#b7cd00;}.cls-6{fill:none;stroke:#010101;}.cls-6,.cls-7{stroke-miterlimit:10;}.cls-7{fill:#fff;stroke:#103553;opacity:0.62;}.cls-8{fill:#e52521;}.cls-9{fill:#3478bd;}.cls-10{fill:#db5820;}</style></defs><title>02</title><g class="cls-1"><g id="Capa_1" data-name="Capa 1"><path class="cls-2" d="M69.49,43.31c-18.35,0-35.34,8-49.21,21.5V85.05a4.82,4.82,0,0,0,4.83,4.82h6.43v9.65a4.43,4.43,0,0,0,.1,1,4.19,4.19,0,0,0,.19.63c0,.09.05.19.09.28a5.21,5.21,0,0,0,.28.52c.06.1.1.21.16.3a4.78,4.78,0,0,0,.54.65l.05.06a4.84,4.84,0,0,0,3.36,1.41h.06a4.8,4.8,0,0,0,3.41-1.42L52.84,89.87h65.55A4.83,4.83,0,0,0,123.22,85V69.54C108.6,53.15,89.89,43.31,69.49,43.31Z"/><path class="cls-3" d="M118.39,10.92H87.67a68.38,68.38,0,0,0-2.11,78.81h32.83a4.82,4.82,0,0,0,4.83-4.82V15.75A4.83,4.83,0,0,0,118.39,10.92Z"/><path class="cls-4" d="M25.11,89.87H55.83A68.06,68.06,0,0,0,69.41,49,68.08,68.08,0,0,0,57.94,11.06H25.11a4.82,4.82,0,0,0-4.83,4.82V85A4.83,4.83,0,0,0,25.11,89.87Z"/><path class="cls-5" d="M74,57.7a83.07,83.07,0,0,0,49.21-16.11V15.88a4.82,4.82,0,0,0-4.83-4.82H25.11a4.82,4.82,0,0,0-4.83,4.82V38A83.23,83.23,0,0,0,74,57.7Z"/><path class="cls-6" d="M118.39,89.87H52.84L39.78,102.93a4.8,4.8,0,0,1-3.41,1.42h-.06A4.84,4.84,0,0,1,33,102.93l-.05-.06a4.78,4.78,0,0,1-.54-.65c-.06-.09-.1-.2-.16-.3a5.21,5.21,0,0,1-.28-.52c0-.09-.05-.19-.09-.28a4.19,4.19,0,0,1-.19-.63,4.43,4.43,0,0,1-.1-1h0V89.87H25.11A4.83,4.83,0,0,1,20.28,85V15.88a4.82,4.82,0,0,1,4.83-4.82h93.28a4.82,4.82,0,0,1,4.83,4.82V85A4.83,4.83,0,0,1,118.39,89.87Z"/><circle class="cls-7" cx="40.21" cy="50.35" r="14.4"/><circle class="cls-7" cx="73.21" cy="50.35" r="14.4"/><circle class="cls-7" cx="106.02" cy="50.35" r="14.4"/><path id="PIN_1" data-name="PIN 1" class="cls-8" d="M40.21,59.4s-6.79-7.57-6.79-11.32a6.79,6.79,0,0,1,13.58,0C47,51.83,40.21,59.4,40.21,59.4Zm0-15.84a4.53,4.53,0,1,0,4.53,4.52A4.52,4.52,0,0,0,40.21,43.56Z"/><path id="PIN_1-2" data-name="PIN 1" class="cls-9" d="M73.21,59.4s-6.79-7.57-6.79-11.32a6.8,6.8,0,0,1,13.59,0C80,51.83,73.21,59.4,73.21,59.4Zm0-15.84a4.53,4.53,0,1,0,4.53,4.52A4.52,4.52,0,0,0,73.21,43.56Z"/><path id="PIN_1-3" data-name="PIN 1" class="cls-10" d="M106,59.4s-6.79-7.57-6.79-11.32a6.79,6.79,0,0,1,13.58,0C112.81,51.83,106,59.4,106,59.4Zm0-15.84a4.53,4.53,0,1,0,4.53,4.52A4.52,4.52,0,0,0,106,43.56Z"/></g></g></svg>