<svg xmlns="http://www.w3.org/2000/svg" viewBox="0 0 143.5 115.27"><defs><style>.cls-1{isolation:isolate;}.cls-2{fill:#3bbbcc;}.cls-2,.cls-3,.cls-4,.cls-5,.cls-6,.cls-8{fill-rule:evenodd;}.cls-2,.cls-3,.cls-4,.cls-5{mix-blend-mode:hard-light;}.cls-3{fill:#1475bc;}.cls-4{fill:#ce810f;}.cls-5{fill:#b7cd00;}.cls-6{fill:none;stroke:#010101;}.cls-6,.cls-7,.cls-9{stroke-miterlimit:10;}.cls-7{fill:#fff;opacity:0.62;}.cls-7,.cls-9{stroke:#103553;}.cls-8{fill:#3162ac;}.cls-9{fill:#db5820;}</style></defs><title>03</title><g class="cls-1"><g id="Capa_1" data-name="Capa 1"><path class="cls-2" d="M69.52,48.58c-18.36,0-35.34,8-49.21,21.5V90.32a4.82,4.82,0,0,0,4.82,4.82h6.44v9.65a4.53,4.53,0,0,0,.1,1,4.57,4.57,0,0,0,.19.63,2.14,2.14,0,0,0,.09.27,5.36,5.36,0,0,0,.28.53c.06.09.1.2.16.29a4.24,4.24,0,0,0,.54.65l0,.07a4.78,4.78,0,0,0,3.35,1.4h.06a4.84,4.84,0,0,0,3.42-1.41L52.87,95.14h65.55a4.82,4.82,0,0,0,4.83-4.82V74.82C108.63,58.42,89.92,48.58,69.52,48.58Z"/><path class="cls-3" d="M118.42,16.19H87.7A68.4,68.4,0,0,0,85.59,95h32.83a4.83,4.83,0,0,0,4.83-4.83V21A4.83,4.83,0,0,0,118.42,16.19Z"/><path class="cls-4" d="M25.13,95.14H55.86a68.1,68.1,0,0,0,13.58-40.9A68.08,68.08,0,0,0,58,16.33H25.13a4.82,4.82,0,0,0-4.82,4.83V90.32A4.82,4.82,0,0,0,25.13,95.14Z"/><path class="cls-5" d="M74,63a83.08,83.08,0,0,0,49.21-16.12V21.16a4.83,4.83,0,0,0-4.83-4.83H25.13a4.82,4.82,0,0,0-4.82,4.83V43.31A83.19,83.19,0,0,0,74,63Z"/><path class="cls-6" d="M118.42,95.14H52.87L39.81,108.21a4.84,4.84,0,0,1-3.42,1.41h-.06a4.78,4.78,0,0,1-3.35-1.4l0-.07a4.24,4.24,0,0,1-.54-.65c-.06-.09-.1-.2-.16-.29a5.36,5.36,0,0,1-.28-.53c0-.09-.06-.18-.09-.27a4.57,4.57,0,0,1-.19-.63,4.53,4.53,0,0,1-.1-1h0V95.14H25.13a4.82,4.82,0,0,1-4.82-4.82V21.16a4.82,4.82,0,0,1,4.82-4.83h93.29a4.83,4.83,0,0,1,4.83,4.83V90.32A4.82,4.82,0,0,1,118.42,95.14Z"/><rect class="cls-7" x="25.84" y="43.36" width="90.64" height="22" rx="11" ry="11"/><path id="MAGNIFYING_GLASS" data-name="MAGNIFYING GLASS" class="cls-8" d="M110.05,59a1.28,1.28,0,0,1-1.81,1.81h0l-3.74-3.75a5.15,5.15,0,1,1,1.8-1.8L110.05,59Zm-8.14-10.17a3.84,3.84,0,1,0,3.83,3.84A3.83,3.83,0,0,0,101.91,48.82Z"/><line class="cls-9" x1="91.99" y1="43.36" x2="91.99" y2="65.36"/></g></g></svg>