<svg xmlns="http://www.w3.org/2000/svg" xmlns:xlink="http://www.w3.org/1999/xlink" viewBox="0 0 191.99 150.22"><defs><style>.cls-1{isolation:isolate;}.cls-2{fill:#bbce19;}.cls-2,.cls-7,.cls-8{stroke:#15385c;stroke-miterlimit:10;}.cls-3{fill:#eea90b;}.cls-12,.cls-3,.cls-4,.cls-5,.cls-6{mix-blend-mode:hard-light;}.cls-4{fill:#b6cc00;}.cls-5{fill:#1476bb;}.cls-6{fill:#f3bc11;}.cls-7{mix-blend-mode:multiply;fill:url(#Degradado_sin_nombre);}.cls-8{fill:none;}.cls-9{fill:#2871b7;}.cls-10{fill:#f6a713;}.cls-11{fill:#e62782;mix-blend-mode:overlay;}.cls-12{fill:#e1dc18;}</style><linearGradient id="Degradado_sin_nombre" x1="98.1" y1="110.19" x2="98.1" y2="92.29" gradientUnits="userSpaceOnUse"><stop offset="0" stop-color="#fff"/><stop offset="1"/></linearGradient></defs><title>EstudAPP01</title><g class="cls-1"><g id="Capa_1" data-name="Capa 1"><polygon class="cls-2" points="154.81 70.78 148.99 104.34 160.87 104.34 154.81 70.78"/><path class="cls-3" d="M93.93,72.13a155.89,155.89,0,0,0-37.85,4.64c-.41.55-.62.87-.62.87V97.92a.7.7,0,0,1,.08-.1,5,5,0,0,0-.77,2.6c0,7.74,19.4,14,43.33,14s43.33-6.27,43.33-14a5,5,0,0,0-.7-2.46V79.28A155.9,155.9,0,0,0,93.93,72.13Z"/><path class="cls-4" d="M97.67,55.48c-27.7,0-42.21,22.17-42.21,22.17v4.93a166.62,166.62,0,0,0,47,6.71,167.24,167.24,0,0,0,38.32-4.42V77.65S125.38,55.48,97.67,55.48Z"/><path class="cls-5" d="M101,55.6c-1.1-.07-2.22-.12-3.36-.12-27.7,0-42.21,22.17-42.21,22.17V97.93a.7.7,0,0,1,.08-.1,5,5,0,0,0-.77,2.6c0,7.73,19.4,14,43.32,14,.83,0,1.64,0,2.45,0a156.63,156.63,0,0,0,3-30.68A157,157,0,0,0,101,55.6Z"/><path class="cls-6" d="M140.33,77.64S125.17,55.76,97.79,55.49a156.78,156.78,0,0,0,.11,58.94c23.84,0,43.13-6.29,43.13-14a5,5,0,0,0-.7-2.46Z"/><path class="cls-7" d="M98.09,110.19c-24.7,0-37.57-6.54-38.27-8.86.7-2.5,13.56-9,38.27-9s37.57,6.54,38.29,8.87C135.65,103.65,122.8,110.19,98.09,110.19Z"/><path class="cls-8" d="M140.73,77.65S125.38,55.48,97.67,55.48,55.46,77.65,55.46,77.65V97.93a.7.7,0,0,1,.08-.1,5,5,0,0,0-.77,2.6c0,7.73,19.4,14,43.32,14s43.34-6.28,43.34-14a5,5,0,0,0-.7-2.46Z"/><path class="cls-9" d="M49.87,123.18H42v5.39h3.38a1.13,1.13,0,0,1,1.1,1.11,1.13,1.13,0,0,1-.32.8,1.07,1.07,0,0,1-.78.33H42v5.43H49.9a1.07,1.07,0,0,1,.78.33,1.08,1.08,0,0,1,0,1.56,1.09,1.09,0,0,1-.8.33h-10V120.94h10a1.09,1.09,0,0,1,.8.33,1.12,1.12,0,0,1,.34.8,1.08,1.08,0,0,1-.34.78A1.09,1.09,0,0,1,49.87,123.18Z"/><path class="cls-9" d="M57.61,125.73h5.08a3.3,3.3,0,0,1,2.09.71,1.88,1.88,0,0,1,.91,1.38,1,1,0,0,1-.33.78,1.12,1.12,0,0,1-.75.3,1.28,1.28,0,0,1-1-.48,1.26,1.26,0,0,0-.91-.47h-5c-.49,0-.74.2-.74.61a.72.72,0,0,0,.49.66l5.89,2.62a3.33,3.33,0,0,1,1.47,1.27,3.49,3.49,0,0,1,.58,1.95,3.27,3.27,0,0,1-1,2.41,3.19,3.19,0,0,1-2.29,1H57.64a3.73,3.73,0,0,1-2.16-.7c-.66-.47-1-.92-1-1.36a1.05,1.05,0,0,1,.32-.77,1.09,1.09,0,0,1,.84-.34,1.34,1.34,0,0,1,.9.48,1.92,1.92,0,0,0,1.39.47h4.13a1.05,1.05,0,0,0,.82-.37,1.32,1.32,0,0,0,.32-.87,1.11,1.11,0,0,0-.73-1.08l-5.95-2.67a3,3,0,0,1-1.32-1.11,2.73,2.73,0,0,1-.46-1.48,2.91,2.91,0,0,1,.82-2A2.67,2.67,0,0,1,57.61,125.73Z"/><path class="cls-9" d="M77,138.46H74.77a3.22,3.22,0,0,1-2.36-1,3.17,3.17,0,0,1-1-2.35V128H70.28a1.06,1.06,0,0,1-.78-.32,1.12,1.12,0,0,1,.78-1.9h1.16V123a1.11,1.11,0,0,1,1.11-1.11,1.06,1.06,0,0,1,.77.33,1,1,0,0,1,.34.78v2.71h4.45a1.11,1.11,0,0,1,.78,1.9,1.1,1.1,0,0,1-.78.32H73.63v7.18a1,1,0,0,0,.34.78,1.09,1.09,0,0,0,.8.33h2.16a1.16,1.16,0,0,0,1.17-1,1.14,1.14,0,0,1,1.12-1,1.08,1.08,0,0,1,.8.32,1.17,1.17,0,0,1,.31.81,3,3,0,0,1-.94,2A3.19,3.19,0,0,1,77,138.46Z"/><path class="cls-9" d="M89.16,136.22l3.72-2.38v-7a1.14,1.14,0,0,1,.32-.8,1.07,1.07,0,0,1,.79-.33,1,1,0,0,1,.78.33,1.11,1.11,0,0,1,.33.8v10.51a1.11,1.11,0,0,1-2.22,0v-.87L91,137.73a4.18,4.18,0,0,1-2.29.73h-1a3.24,3.24,0,0,1-2.33-1,3.4,3.4,0,0,1-1-2.32l-.33-8.35a1,1,0,0,1,.31-.77,1.12,1.12,0,0,1,.8-.34,1,1,0,0,1,.77.33,1.12,1.12,0,0,1,.34.78l.3,8.19c0,.79.48,1.19,1.36,1.19Z"/><path class="cls-9" d="M107.49,127.28V122a1,1,0,0,1,.32-.78,1,1,0,0,1,.76-.32,1.09,1.09,0,0,1,.8.32,1.05,1.05,0,0,1,.33.78v15.31a1.11,1.11,0,0,1-1.1,1.11,1,1,0,0,1-.79-.33,1,1,0,0,1-.32-.78v-.49a4.53,4.53,0,0,1-3,1.6h-1.89a3.48,3.48,0,0,1-2.26-1l-.93-.78a2.94,2.94,0,0,1-.6-1,3.61,3.61,0,0,1-.28-1.33v-4.51a3.41,3.41,0,0,1,.32-1.46,3,3,0,0,1,.73-1.06l.91-.78a3.42,3.42,0,0,1,2.3-.84h1.59a3.6,3.6,0,0,1,2.38.92Zm-3.22.67h-1.54a1.28,1.28,0,0,0-.88.36l-.71.62a1.07,1.07,0,0,0-.37.84v4.69a1.06,1.06,0,0,0,.43.83l.73.62a1.1,1.1,0,0,0,.72.31h1.81a1.44,1.44,0,0,0,.84-.41l1.76-1.45a1.25,1.25,0,0,0,.43-1V131a1.45,1.45,0,0,0-.46-1.19l-1.81-1.54A1.32,1.32,0,0,0,104.27,128Z"/><path class="cls-10" d="M113.34,136.91l4.48-15.22a1.09,1.09,0,0,1,1.13-.83,1,1,0,0,1,1,.7L124.42,137a1.05,1.05,0,0,1,.06.33,1.09,1.09,0,0,1-.32.79,1,1,0,0,1-.73.33,1,1,0,0,1-1.11-.81l-.88-3h-5.09l-1,3.23a.72.72,0,0,1-.33.41,1.23,1.23,0,0,1-.64.19,1.07,1.07,0,0,1-.81-.33,1.11,1.11,0,0,1-.32-.81A1.51,1.51,0,0,1,113.34,136.91Zm5.59-10.9L117,132.38h3.77Z"/><path class="cls-10" d="M131.91,137.19v4.92a1.1,1.1,0,0,1-.33.81,1.07,1.07,0,0,1-.79.33,1.14,1.14,0,0,1-1.14-1.14V126.25a1,1,0,0,1,.34-.78,1.09,1.09,0,0,1,.8-.33,1.15,1.15,0,0,1,1.12,1.11V127a4.44,4.44,0,0,1,3.19-1.8h.51a3.21,3.21,0,0,1,2.17.87l1.86,1.6a3.41,3.41,0,0,1,1.21,2.69v3.47a3.48,3.48,0,0,1-1.31,2.76l-1.81,1.57a3.29,3.29,0,0,1-2.28.82H135a3,3,0,0,1-2.19-.9Zm3.13-.49h.57a1.4,1.4,0,0,0,.88-.41l1.73-1.53a1.14,1.14,0,0,0,.44-.94v-3.58a1.21,1.21,0,0,0-.49-.94l-1.87-1.61a1,1,0,0,0-.69-.27H135a1.62,1.62,0,0,0-1,.6l-1.66,1.65a1.34,1.34,0,0,0-.43,1v2.84a1.45,1.45,0,0,0,.48,1l1.61,1.6A1.61,1.61,0,0,0,135,136.7Z"/><path class="cls-10" d="M148.28,137.19v4.92a1.13,1.13,0,0,1-.32.81,1.07,1.07,0,0,1-.79.33,1.09,1.09,0,0,1-.8-.33,1.07,1.07,0,0,1-.34-.81V126.25a1.07,1.07,0,0,1,.33-.78,1.1,1.1,0,0,1,.81-.33,1.13,1.13,0,0,1,1.11,1.11V127a4.47,4.47,0,0,1,3.19-1.8H152a3.23,3.23,0,0,1,2.17.87l1.85,1.6a3.42,3.42,0,0,1,1.22,2.69v3.47a3.51,3.51,0,0,1-1.31,2.76l-1.81,1.57a3.29,3.29,0,0,1-2.28.82h-.49a3,3,0,0,1-2.2-.9Zm3.14-.49H152a1.38,1.38,0,0,0,.87-.41l1.74-1.53a1.13,1.13,0,0,0,.43-.94v-3.58a1.18,1.18,0,0,0-.49-.94l-1.86-1.61a1.08,1.08,0,0,0-.69-.27h-.65a1.63,1.63,0,0,0-1,.6l-1.65,1.65a1.35,1.35,0,0,0-.44,1v2.84a1.42,1.42,0,0,0,.49,1l1.6,1.6A1.65,1.65,0,0,0,151.42,136.7Z"/><path class="cls-5" d="M81.67,18.34q-.12,3-.12,6.06a156.77,156.77,0,0,0,2.87,29.91,55.72,55.72,0,0,1,59.14,21.25l35.55-25.4L98.43,10Z"/><path class="cls-6" d="M17.09,50.16l35.54,25.4A55.74,55.74,0,0,1,114,54.92c0-1.58.08-3.16.08-4.75a156.63,156.63,0,0,0-3.7-33.92L97.76,10Z"/><path class="cls-11" d="M94.17,37.25a155.22,155.22,0,0,0-70.95,17l30,21.42a55.73,55.73,0,0,1,90.27,0l26.41-18.87A155.18,155.18,0,0,0,94.17,37.25Z"/><path class="cls-12" d="M99.27,47.07a155.49,155.49,0,0,0,54.18-9.68L98.41,10,44.13,37A155.42,155.42,0,0,0,99.27,47.07Z"/><path class="cls-8" d="M98.43,10,17.75,50.16l35.54,25.4a55.73,55.73,0,0,1,90.27,0l35.55-25.4Z"/></g></g></svg>